<svg fill="#fff" aria-hidden="true" width="24" height="24" viewBox="0 0 24 24" xmlns="http://www.w3.org/2000/svg"><path d="M20.16,12.98l-2.75-2.75c-.29-.29-.77-.29-1.06,0-.29.29-.29.77,0,1.06l1.47,1.47h-6.69v-6.69l1.47,1.47c.29.29.77.29,1.06,0,.29-.29.29-.77,0-1.06l-2.75-2.75c-.14-.14-.33-.22-.53-.22s-.39.08-.53.22l-2.75,2.75c-.29.29-.29.77,0,1.06.29.29.77.29,1.06,0l1.47-1.47v7.13l-3.52,3.52v-2.08c0-.41-.34-.75-.75-.75s-.75.34-.75.75v3.89c0,.2.08.39.22.53.14.14.33.22.53.22h3.89c.41,0,.75-.34.75-.75s-.34-.75-.75-.75h-2.08s3.52-3.52,3.52-3.52h7.13l-1.47,1.47c-.29.29-.29.77,0,1.06s.77.29,1.06,0l2.75-2.75c.14-.14.22-.33.22-.53s-.08-.39-.22-.53Z"></path></svg>