<svg xmlns="http://www.w3.org/2000/svg" viewBox="0 0 1600 800"><svg width="800" height="800" viewBox="0 0 24 24" fill="none" xmlns="http://www.w3.org/2000/svg" x="0"><path d="M15 20L7 12L15 4" stroke="#fff" stroke-width="2" stroke-linecap="round" stroke-linejoin="round" /></svg><svg fill="#fff" xmlns="http://www.w3.org/2000/svg" width="800" height="800" viewBox="0 0 52 52" enable-background="new 0 0 52 52" xml:space="preserve" x="800"><g>	<path d="M49,27h-5v22c0,0.6-0.4,1-1,1H33c-0.6,0-1-0.4-1-1V32H20v17c0,0.6-0.4,1-1,1H9c-0.6,0-1-0.4-1-1V27H3   c-0.4,0-0.8-0.2-0.9-0.6C1.9,26,2,25.6,2.3,25.3l23-23c0.4-0.4,1.1-0.4,1.4,0l23,23c0.3,0.3,0.3,0.7,0.2,1.1S49.4,27,49,27z" /></g></svg></svg>